<?xml version="1.0" encoding="UTF-8" standalone="no"?>
<!-- Created with Inkscape (http://www.inkscape.org/) -->

<svg
   width="66.410416mm"
   height="66.410416mm"
   viewBox="0 0 66.410416 66.410416"
   version="1.1"
   id="svg1"
   xml:space="preserve"
   xmlns="http://www.w3.org/2000/svg"
   xmlns:svg="http://www.w3.org/2000/svg"><defs
     id="defs1"><clipPath
       clipPathUnits="userSpaceOnUse"
       id="clipPath2"><circle
         style="fill:none;fill-opacity:1;stroke:#11d8f1;stroke-width:0.3;stroke-dasharray:none;stroke-opacity:1"
         id="circle3"
         cx="161.228"
         cy="247.48886"
         r="33.205204" /></clipPath></defs><g
     id="layer1"
     transform="translate(-128.0228,-214.28365)"><g
       id="g2"
       clip-path="url(#clipPath2)"><circle
         style="fill:#ffffff;fill-opacity:1;stroke:none;stroke-width:0.3;stroke-dasharray:none;stroke-opacity:1"
         id="circle2"
         cx="161.228"
         cy="247.48886"
         r="33.205204" /><g
         id="g1"><path
           style="fill:#000000;stroke-width:0.999997"
           d="m 127.92353,218.79926 v 18.52048 h 0.26665 0.26665 l 0.0326,-0.62577 0.0327,-0.6258 0.2993,0.006 0.29929,0.006 v -0.13412 -0.13411 l 0.19046,-0.0497 0.19045,-0.0497 -0.19045,-0.013 -0.19046,-0.013 v -0.1009 -0.10092 l 0.19046,-0.0497 0.19045,-0.0497 -0.19045,-0.013 -0.19046,-0.013 v -0.10082 -0.10092 l 0.19046,-0.0497 0.19045,-0.0497 -0.19045,-0.013 -0.19046,-0.013 v -0.1089 -0.10886 l 0.13603,-0.002 0.13606,-0.002 -0.16325,-0.10721 -0.16326,-0.1072 0.16326,-0.10887 0.16325,-0.10886 -0.16325,-0.10722 -0.16326,-0.1072 0.10888,-0.0144 0.10888,-0.0144 0.16324,-0.0146 0.16326,-0.0146 -0.0273,-0.13607 -0.0273,-0.13604 h 0.36345 0.36345 l 0.1162,-0.25514 0.1162,-0.25515 0.48888,0.0438 0.48888,0.0438 0.0576,-0.5232 0.0575,-0.52319 0.0745,-0.35372 0.0747,-0.35371 h 0.36856 0.36858 v 0.22544 0.22545 l 0.16179,0.1618 0.16179,0.16178 -0.0666,-0.3328 -0.0666,-0.33285 h 0.19316 0.19316 l -0.0632,-1.19716 -0.0631,-1.19717 h 0.26452 0.26452 v -0.10886 -0.10889 h 0.19597 0.19596 l 0.29172,0.13604 0.29168,0.13605 -0.0684,0.89788 -0.0684,0.89788 h 0.45139 0.4514 v 0.10887 0.10889 h 0.22549 0.22553 l -0.0263,-2.04066 -0.0263,-2.04064 0.61691,-0.0326 0.61691,-0.0326 v -0.10335 -0.10336 h 0.21768 0.21766 v 0.10887 0.10889 h 0.16326 0.16325 v 2.99294 2.99293 h 0.16325 0.16325 v -1.47703 -1.47704 l 0.16241,-0.16242 0.16242,-0.16241 0.10965,0.0678 0.10965,0.0678 v -0.11182 -0.11183 l 0.16409,0.063 0.16407,0.063 -0.0281,-0.25683 -0.0281,-0.25684 0.17467,0.013 0.17467,0.013 -0.032,-0.69269 -0.032,-0.69271 h 0.31983 0.31985 v -0.16326 -0.16325 h 0.32649 0.3265 v 0.16198 0.16196 l 0.19047,-0.0159 0.19047,-0.016 0.16324,0.0172 0.16326,0.0173 -0.0318,3.26508 -0.0318,3.2651 h 0.11338 0.11338 v -3.04814 -3.04738 h 0.10886 0.10889 v -0.206 -0.20602 l 0.16325,-0.0627 0.16324,-0.0627 v -0.16666 -0.16666 h 0.38092 0.38091 v 0.16666 0.16666 l 0.16326,0.0627 0.16324,0.0627 v 0.20602 0.206 h 0.10889 0.10887 v 1.5781 1.57808 h 0.48976 0.48975 v 0.0998 0.0998 l -0.13603,0.0508 -0.13605,0.0507 0.21767,0.0881 0.21766,0.0881 0.14382,0.14214 0.14381,0.14214 -0.14381,0.002 -0.14382,0.002 0.16325,0.10553 0.16325,0.10553 -0.11273,0.002 -0.11273,0.002 v 0.21769 0.21766 l 0.11273,0.002 0.11273,0.002 -0.16325,0.10554 -0.16325,0.10554 0.14246,0.002 0.14247,0.002 -0.085,0.13605 -0.085,0.13604 -0.0207,0.13604 -0.0206,0.13606 0.12637,0.002 0.12635,0.002 -0.10887,0.0801 -0.10889,0.0801 -0.0116,0.29928 -0.0116,0.29929 0.12058,0.002 0.12058,0.002 -0.10889,0.0801 -0.10887,0.0801 v 0.16325 0.16326 l 0.10887,0.0801 0.10889,0.0801 -0.12637,0.002 -0.12635,0.002 0.0365,0.19046 0.0365,0.19047 0.009,0.0543 0.009,0.0544 0.16258,-0.31175 0.16258,-0.31173 v -4.2865 -4.28651 h 0.10888 0.10886 v -0.27209 -0.27207 l 0.0273,1.3e-4 0.0273,1.7e-4 0.92509,0.16294 0.92509,0.16296 0.0273,1.5e-4 0.0273,1.4e-4 v -0.49224 -0.48975 h 0.0903 0.0903 l 0.10347,1.22439 0.10349,1.22437 -0.009,3.33577 -0.009,3.33576 0.38637,-0.002 0.38638,-0.002 -0.24488,-0.1644 -0.24486,-0.16441 v -0.14996 -0.14996 h 0.16556 0.1656 l 0.0995,-0.24488 0.0995,-0.24488 0.24796,-1.959 0.24797,-1.95901 0.004,-2.12228 0.004,-2.12227 -0.20813,-1.55087 -0.20814,-1.55089 h -0.31103 -0.31091 l 0.0682,-0.27209 0.0682,-0.2721 -0.31109,-0.009 -0.31109,-0.009 0.13604,-0.0548 0.13605,-0.0549 v -0.13781 -0.1378 l 0.65467,-0.26003 0.65468,-0.26002 -0.0495,-0.12907 -0.0495,-0.12904 0.26549,-0.17397 0.26553,-0.17399 0.0182,-0.62328 0.0182,-0.62328 0.0634,0.65044 0.0634,0.65043 0.27209,0.13662 0.27207,0.13664 -0.029,0.15189 -0.029,0.1519 0.6003,0.24363 0.60031,0.24365 v 0.15061 0.15063 l 0.19045,0.013 0.19046,0.013 -0.32651,0.0726 -0.3265,0.0727 0.0247,0.23386 0.0247,0.23384 -0.2964,0.0342 -0.29639,0.0342 -0.12558,0.87068 -0.12559,0.87067 -0.14106,1.66257 -0.14106,1.66261 0.13614,1.65684 0.13613,1.65685 0.21272,1.57224 0.2127,1.5722 0.13513,0.0859 0.13515,0.0858 0.0816,0.002 0.0817,0.002 v 0.15785 0.15785 l -0.17993,0.1007 -0.17991,0.10072 0.0983,0.80261 0.0984,0.80259 0.24488,0.0348 0.24487,0.0348 0.002,-3.78958 0.002,-3.78952 0.0657,-0.2449 0.0657,-0.24487 h 0.15055 0.15056 v 0.16325 0.16324 l 0.19045,-0.002 0.19047,-0.002 0.24488,-0.0657 0.24488,-0.0657 v -0.20498 -0.20498 h 0.10887 0.10888 v 0.2721 0.27209 h 0.10887 0.10888 v 4.46219 4.46218 l 0.0817,-0.003 0.0816,-0.003 0.29929,-0.42318 0.2993,-0.42322 v -0.32451 -0.32452 l -0.27208,-0.0682 -0.27209,-0.0682 v -0.16459 -0.1646 l 0.46255,-0.67679 0.46254,-0.67681 0.29929,0.0344 0.2993,0.0344 v -4.40233 -4.40232 l 0.24488,-0.0657 0.24487,-0.0657 0.2993,-0.002 0.29928,-0.002 v -0.10889 -0.10886 h 0.10888 0.10888 v 0.16325 0.16324 l 0.19045,-3e-5 0.19046,-3e-5 v 4.91566 4.91564 l 0.13973,0.0467 0.13973,0.0467 -0.0309,-2.73122 -0.0309,-2.73123 0.058,6e-5 0.058,1e-4 0.94878,0.87954 0.94878,0.87955 v 2.43988 2.43989 h 0.10889 0.10887 v -3.90622 -3.90622 l 0.27708,-0.0695 0.27709,-0.0695 0.12791,0.0791 0.1279,0.0791 0.30241,-0.023 0.30242,-0.023 0.0242,3.89254 0.0243,3.89256 0.0684,-3.64594 0.0684,-3.64595 0.0297,-0.85207 0.0297,-0.8521 0.16784,-0.0643 0.16785,-0.0644 0.28722,-0.32145 0.28723,-0.32148 0.26834,0.3189 0.26834,0.3189 0.19539,0.075 0.19537,0.075 2.3e-4,0.73525 2.2e-4,0.73524 0.0794,2.77528 0.0794,2.77528 0.0219,-0.47033 0.0219,-0.47032 0.15548,-0.15547 0.15547,-0.15549 h 0.11659 0.11659 v -0.15111 -0.15117 l 0.38091,-0.0713 0.38092,-0.0713 v -1.51922 -1.51874 h 0.54418 0.54417 v 3.15619 3.15618 h 0.10886 0.1089 v -2.35514 -2.35514 l 0.19043,-0.14457 0.19048,-0.14458 0.19045,-0.004 0.19046,-0.004 v 0.10887 0.10888 h 0.27208 0.2721 l 0.0116,0.40813 0.0116,0.40812 0.009,1.91284 0.009,1.91284 0.2518,-0.0482 0.25179,-0.0482 v -0.0961 -0.0961 h 0.21767 0.21768 v -3.2106 -3.21059 h 0.10888 0.10887 v -0.27209 -0.27209 h 0.21767 0.21767 v -0.16325 -0.16326 h 0.27209 0.27208 v 0.16326 0.16325 h 0.16326 0.16325 v 0.27209 0.27209 h 0.10886 0.10889 v 3.37384 3.37386 h 0.10887 0.10888 v -2.43827 -2.43827 l 0.57138,-0.0416 0.57139,-0.0416 0.24486,0.0438 0.24488,0.0438 v 3.19793 3.19791 h 0.16324 0.16326 v -1.9736 -1.97357 l 0.1261,-0.42079 0.1261,-0.42074 h 0.52415 0.52416 l 0.17955,0.34724 0.17956,0.34723 0.14974,-0.2048 0.14975,-0.20475 v 0.18404 0.18405 h 0.1166 0.11658 l -0.0349,0.97976 -0.0349,0.97976 0.10887,-0.002 0.10889,-0.002 0.70741,-0.22264 0.70744,-0.22264 0.87066,-0.0604 0.87068,-0.0605 0.63995,0.12019 0.63994,0.12018 0.61111,0.29899 0.6111,0.299 -0.18991,0.0365 -0.18993,0.0367 v 0.3185 0.31853 l 0.13605,0.0116 0.13602,0.0116 0.33108,-0.0175 0.33106,-0.0174 0.20277,0.22405 0.20277,0.22406 h 0.13904 0.13905 l 0.0691,-0.21768 0.0691,-0.21767 h 0.26475 0.26473 v 0.1089 0.10886 h 0.10991 0.10991 l -0.0321,-1.74727 -0.0321,-1.74728 0.24873,0.0625 0.24873,0.0625 v -0.0843 -0.0843 l 0.34757,-0.15386 0.34755,-0.15385 0.0425,0.12724 0.0425,0.12728 h 0.20858 0.20861 v 0.12069 0.12058 l 0.24582,-0.0618 0.24581,-0.0618 -0.0131,0.97794 -0.013,0.9779 0.0716,0.0444 0.0716,0.0444 0.14673,-0.0906 0.14672,-0.0905 0.0213,-0.96326 0.0214,-0.96327 0.017,-0.19046 0.017,-0.19046 h 0.1089 0.10886 v 0.11659 0.11659 l 0.16325,0.16324 0.16326,0.16326 v -0.12481 -0.12483 l 0.46255,0.0184 0.46253,0.0183 0.13606,-0.0105 0.13603,-0.0104 v -0.16326 -0.16326 h 0.0962 0.0961 l 0.0423,0.2449 0.0423,0.24488 -0.003,1.22439 -0.003,1.22436 h 0.20092 0.20097 l -0.0372,-1.14286 -0.0372,-1.14288 0.0782,1.2e-4 0.0784,1.2e-4 -0.0627,-0.16325 -0.0627,-0.16326 h 0.33812 0.33816 v -0.13906 -0.13906 l 0.22054,-0.18884 0.22056,-0.18882 0.063,0.16401 0.0631,0.16402 0.0895,-0.0554 0.0895,-0.0554 0.0695,0.21923 0.0695,0.21924 h 0.31917 0.31916 v 0.0998 0.0998 l -0.13605,0.0548 -0.13603,0.0549 0.19045,0.009 0.19046,0.009 v 0.10888 0.10886 h -0.0837 -0.0837 v 0.81627 0.81626 h 0.62788 0.62788 v 0.48975 0.48975 h 0.43534 0.43533 v -2.36858 -2.3686 l 0.51698,-0.12072 0.51696,-0.1207 0.27208,0.0201 0.27209,0.0201 0.46253,0.0886 0.46256,0.0886 v 2.59811 2.59811 h 0.43532 0.43534 v 0.48975 0.48976 h 0.32652 0.32649 v 0.59858 42.88887 H 161.22873 127.9255 Z m 64.97392,17.26891 v -0.16325 h -0.0906 -0.0905 v 0.16325 0.16325 h 0.0905 0.0906 z m -43.2416,-0.18367 -0.0571,-0.14285 -0.009,0.20862 -0.009,0.20858 0.0659,-0.0657 0.0657,-0.0658 z m 0.51535,0.17202 0.17213,-0.0661 v -0.0971 -0.0972 h -0.27207 -0.27209 v 0.16326 0.16325 h 0.0999 0.0999 z m -1.48194,-0.91346 0.009,-0.65298 h -0.33386 -0.33396 l 0.068,0.34007 0.068,0.34014 v 0.14623 0.14621 l 0.16325,-0.0627 0.16324,-0.0627 v 0.22931 0.22931 h 0.0935 0.0935 z m 42.14035,0.48976 v -0.16325 h -0.0429 -0.0429 l -0.0627,0.16325 -0.0627,0.16325 h 0.10542 0.10541 z m 2.02479,-0.13378 -0.0658,-0.0658 -0.0652,0.0652 -0.0652,0.0652 0.0851,0.13794 0.0851,0.13792 0.0459,-0.13748 0.0458,-0.13747 z m -42.61988,-0.1247 v -0.20404 l -0.068,-0.34013 -0.068,-0.34008 h -0.20407 -0.20406 v 0.20404 0.20406 l 0.068,0.34013 0.068,0.3401 h 0.20406 0.20406 z m 40.56062,-0.25165 -0.0573,-0.14287 -0.009,0.20861 -0.009,0.20861 0.0658,-0.0658 0.0656,-0.0658 z m 2.10231,0.0748 v -0.16327 h -0.10886 -0.10887 v 0.16327 0.16323 h 0.10887 0.10886 z m -15.042,-0.11364 -0.0592,-0.0593 -0.28545,-0.0517 -0.28543,-0.0517 v 0.10372 0.10374 l 0.29929,0.0368 0.29929,0.0368 0.0454,-0.0296 0.0454,-0.0296 z m 0.31315,0.0955 -0.0723,-0.0723 -0.0723,0.0723 -0.0723,0.0725 h 0.1451 0.14511 z m -1.05207,-0.19953 v -0.16324 h -0.16326 -0.16324 v 0.16324 0.16325 h 0.16324 0.16326 z m -2.43064,-0.0181 -0.0724,-0.0723 -0.0724,0.0723 -0.0725,0.0723 h 0.14511 0.14512 z m 1.99531,-0.0404 v -0.10463 h -0.92511 -0.92508 v 0.0826 0.0824 l 0.92508,0.0222 0.92511,0.0221 z m 14.13556,-0.45837 -0.013,-0.46254 -0.0757,0.3265 -0.0755,0.32653 0.0458,0.13603 0.0458,0.13605 h 0.0429 0.0429 z m 2.08069,0.29929 v -0.16323 h -0.0428 -0.0429 l -0.0627,0.16323 -0.0627,0.16328 h 0.10541 0.1054 z m -0.002,-0.51694 -0.002,-0.24489 -0.1001,0.15806 -0.1001,0.15806 0.0535,0.0868 0.0535,0.0868 h 0.0479 0.048 z m -2.10067,-0.53737 -0.0571,-0.14285 -0.009,0.2086 -0.009,0.2086 0.0658,-0.0656 0.0656,-0.0658 z m 2.10235,0.0684 v -0.16969 l -0.10889,0.0672 -0.10886,0.0672 v 0.10245 0.10244 h 0.10886 0.10889 z m -42.88043,-0.11401 v -0.0429 h -0.16326 -0.16325 v 0.10542 0.10541 l 0.16325,-0.0627 0.16326,-0.0627 z m -1.34283,-1.02202 -0.0176,-1.08811 -0.12096,-2.3e-4 -0.12095,-2.4e-4 -0.0724,0.73462 -0.0724,0.73462 -0.0636,0.35373 -0.0636,0.3537 h 0.27459 0.27458 z m 42.12112,0.63236 -0.0572,-0.14285 -0.009,0.2086 -0.009,0.20859 0.0658,-0.0658 0.0656,-0.0658 z m 2.10233,0.0747 v -0.16327 h -0.0907 -0.0905 v 0.16327 0.16326 h 0.0905 0.0907 z m -42.92086,-0.19046 -0.0657,-0.24489 -0.002,-0.19045 -0.002,-0.19046 h -0.16327 -0.16325 v 0.43534 0.43531 h 0.23036 0.23037 z m 40.81853,-0.31969 -0.0572,-0.14286 -0.009,0.20859 -0.009,0.20862 0.0658,-0.0658 0.0656,-0.0657 z m 2.10233,0.0748 v -0.16325 h -0.0907 -0.0905 v 0.16325 0.16325 h 0.0905 0.0907 z m -2.09987,-0.95231 -0.0471,-0.24485 v 0.48975 0.48974 l 0.0471,-0.24486 0.0472,-0.24488 z m 2.09987,0.23847 v -0.44177 l -0.0817,0.0504 -0.0817,0.0504 0.0189,0.36407 0.0189,0.3641 0.009,0.0273 0.009,0.0273 h 0.0543 0.0543 z m -43.0983,-0.25936 v -0.37451 l -0.10888,-0.0672 -0.10887,-0.0672 v 0.44175 0.44177 h 0.10887 0.10888 z m 40.99596,-0.51659 -0.0572,-0.14286 -0.009,0.20861 -0.009,0.2086 0.0658,-0.0658 0.0656,-0.0658 z m 2.10233,0.0748 v -0.16325 h -0.10541 -0.1054 l 0.0627,0.16325 0.0627,0.16325 h 0.0429 0.0429 z m -44.18664,-1.05208 v -0.8888 l -0.0397,0.0454 -0.0397,0.0454 -0.0736,0.84346 -0.0735,0.84348 h 0.11339 0.11337 z m 0.97951,0.39906 v -0.38092 h -0.10887 -0.10888 v 0.38092 0.38092 h 0.10888 0.10887 z m -0.14069,-1.16868 -0.0474,-0.24615 -0.002,0.43533 -0.002,0.43532 0.0495,-0.18919 0.0495,-0.18915 z m 18.75132,-1.28007 v -0.10889 h -0.16327 -0.16325 v 0.10889 0.10887 h 0.16325 0.16326 z m -7.67281,-0.87069 0.0672,-0.10887 h -0.1151 -0.1153 v 0.10887 0.10889 h 0.0479 0.0479 z m 1.2516,0 v -0.10887 h -0.11509 -0.11531 l 0.0672,0.10887 0.0672,0.10889 h 0.0479 0.0479 z m -12.32765,-4.97678 -0.0429,-0.41056 -8.3e-4,0.76184 -8.2e-4,0.76184 0.0438,-0.35128 0.0438,-0.35128 z m -1.1613,-0.0453 -0.11454,-0.3653 0.0541,0.36733 0.0541,0.3673 0.0164,0.28568 0.0164,0.2857 0.0443,-0.2877 0.0443,-0.28773 z m 0.29007,-0.009 -0.0442,-0.35567 -8.2e-4,0.653 -8.3e-4,0.65302 0.0452,-0.29734 0.0452,-0.29735 z m 1.08156,0.43339 -0.0548,-0.13606 v 0.27209 0.27209 l 0.0548,-0.13605 0.0548,-0.13604 z m 0.11221,-0.59653 -0.0501,-0.19253 -0.004,0.32651 -0.004,0.32649 0.0542,-0.13397 0.0542,-0.13397 z m 32.46596,9.98345 v -0.1451 l 0.0723,0.0723 0.0723,0.0726 -0.0723,0.0723 -0.0723,0.0723 z"
           id="path2-6-5-6" /><text
           xml:space="preserve"
           style="font-style:normal;font-variant:normal;font-weight:bold;font-stretch:normal;font-size:28.8819px;line-height:1.25;font-family:'Yu Gothic';-inkscape-font-specification:'Yu Gothic Bold';letter-spacing:0px;word-spacing:0px;fill:#ffffff;fill-opacity:1;stroke:none;stroke-width:0.264583"
           x="144.4501"
           y="239.0352"
           id="text7-5-8-9"
           transform="scale(0.90535056,1.1045445)"><tspan
             id="tspan7-1-8-4"
             style="font-style:normal;font-variant:normal;font-weight:bold;font-stretch:normal;font-size:28.8819px;font-family:'Yu Gothic';-inkscape-font-specification:'Yu Gothic Bold';fill:#ffffff;fill-opacity:1;stroke-width:0.264583"
             x="144.4501"
             y="239.0352">UGK</tspan></text></g></g><circle
       style="fill:none;fill-opacity:1;stroke:none;stroke-width:0.3;stroke-dasharray:none;stroke-opacity:1"
       id="circle1"
       cx="161.228"
       cy="247.48886"
       r="33.205204" /></g></svg>
